<svg width="48" height="49" viewBox="0 0 48 49" fill="none" xmlns="http://www.w3.org/2000/svg">
<mask id="path-1-inside-1_13_53823" fill="white">
<path d="M0 0.333496H48V48.3335H0V0.333496Z"/>
</mask>
<path d="M0 0.333496V-0.666504H-1V0.333496H0ZM48 0.333496H49V-0.666504H48V0.333496ZM48 48.3335V49.3335H49V48.3335H48ZM0 48.3335H-1V49.3335H0V48.3335ZM0 1.3335H48V-0.666504H0V1.3335ZM47 0.333496V48.3335H49V0.333496H47ZM48 47.3335H0V49.3335H48V47.3335ZM1 48.3335V0.333496H-1V48.3335H1Z" fill="#0072C3" />
<path fill-rule="evenodd" clip-rule="evenodd" d="M24.9804 18.6467C25.1757 18.4514 25.4923 18.4514 25.6875 18.6467L31.0209 23.98C31.2161 24.1753 31.2161 24.4919 31.0209 24.6871L25.6875 30.0205C25.4923 30.2157 25.1757 30.2157 24.9804 30.0205C24.7852 29.8252 24.7852 29.5086 24.9804 29.3134L29.4602 24.8336H17.334C17.0578 24.8336 16.834 24.6097 16.834 24.3336C16.834 24.0574 17.0578 23.8336 17.334 23.8336H29.4602L24.9804 19.3538C24.7852 19.1585 24.7852 18.842 24.9804 18.6467Z" fill="#0072C3"/>
</svg>
