<svg width="48" height="49" viewBox="0 0 48 49" fill="none" xmlns="http://www.w3.org/2000/svg">
<mask id="path-1-inside-1_13_53822" fill="white">
<path d="M0 0.333496H48V48.3335H0V0.333496Z"/>
</mask>
<path d="M0 0.333496V-0.666504H-1V0.333496H0ZM48 0.333496H49V-0.666504H48V0.333496ZM48 48.3335V49.3335H49V48.3335H48ZM0 48.3335H-1V49.3335H0V48.3335ZM0 1.3335H48V-0.666504H0V1.3335ZM47 0.333496V48.3335H49V0.333496H47ZM48 47.3335H0V49.3335H48V47.3335ZM1 48.3335V0.333496H-1V48.3335H1Z" fill="#0072C3" />
<path fill-rule="evenodd" clip-rule="evenodd" d="M23.0209 18.6467C23.2161 18.842 23.2161 19.1585 23.0209 19.3538L18.5411 23.8336H30.6673C30.9435 23.8336 31.1673 24.0574 31.1673 24.3336C31.1673 24.6097 30.9435 24.8336 30.6673 24.8336H18.5411L23.0209 29.3134C23.2161 29.5086 23.2161 29.8252 23.0209 30.0205C22.8256 30.2157 22.509 30.2157 22.3138 30.0205L16.9804 24.6871C16.7852 24.4919 16.7852 24.1753 16.9804 23.98L22.3138 18.6467C22.509 18.4514 22.8256 18.4514 23.0209 18.6467Z" fill="#0072C3"/>
</svg>
