<svg width="20" height="20" viewBox="0 0 20 20" fill="none" xmlns="http://www.w3.org/2000/svg">
<path fill-rule="evenodd" clip-rule="evenodd" d="M3.0078 9.66667C3.00262 9.77713 3 9.88826 3 10C3 13.4101 5.43837 16.2506 8.66667 16.8732V15C8.66667 14.3557 8.14433 13.8333 7.5 13.8333C6.30338 13.8333 5.33333 12.8633 5.33333 11.6667V10.8333C5.33333 10.189 4.811 9.66667 4.16667 9.66667H3.0078ZM3.12683 8.66667H4.16667C5.36328 8.66667 6.33333 9.63672 6.33333 10.8333V11.6667C6.33333 12.311 6.85567 12.8333 7.5 12.8333C8.69662 12.8333 9.66667 13.8034 9.66667 15V16.9922C9.77713 16.9974 9.88826 17 10 17C10.695 17 11.3663 16.8987 12 16.7101V15C12 13.8034 12.97 12.8333 14.1667 12.8333H16.4029C16.7867 11.9671 17 11.0085 17 10C17 8.99153 16.7867 8.03288 16.4029 7.16667L15.8333 7.16667C15.189 7.16667 14.6667 7.689 14.6667 8.33333C14.6667 9.52995 13.6966 10.5 12.5 10.5C11.3034 10.5 10.3333 9.52995 10.3333 8.33333C10.3333 7.689 9.811 7.16667 9.16667 7.16667H8.75C7.32326 7.16667 6.16667 6.01007 6.16667 4.58333V4.14195C4.61434 5.15982 3.49104 6.77807 3.12683 8.66667ZM6.44466 2.83146C3.81038 4.14049 2 6.85883 2 10C2 14.4183 5.58172 18 10 18C14.4183 18 18 14.4183 18 10C18 5.58172 14.4183 2 10 2C8.72289 2 7.51568 2.29925 6.44466 2.83146ZM7.16667 3.59713V4.58333C7.16667 5.45778 7.87555 6.16667 8.75 6.16667H9.16667C10.3633 6.16667 11.3333 7.13672 11.3333 8.33333C11.3333 8.97767 11.8557 9.5 12.5 9.5C13.1443 9.5 13.6667 8.97767 13.6667 8.33333C13.6667 7.13672 14.6367 6.16667 15.8333 6.16667H15.858C14.6076 4.25956 12.4509 3 10 3C8.99154 3 8.03288 3.21326 7.16667 3.59713ZM15.858 13.8333H14.1667C13.5223 13.8333 13 14.3557 13 15V16.3264C14.1664 15.7723 15.1553 14.905 15.858 13.8333Z" fill="white"/>
</svg>
