<svg width="72" height="49" viewBox="0 0 72 49" fill="none" xmlns="http://www.w3.org/2000/svg">
<g clip-path="url(#clip0_13_53905)">
<path d="M12 0.333496L24 12.3335L12 24.3335L0 12.3335L12 0.333496ZM0 36.3335L12 48.3335L24 36.3335L12 24.3335L0 36.3335ZM72 12.3335L60 0.333496L48 12.3335L36 0.333496L24 12.3335L36 24.3335L24 36.3335L36 48.3335L48 36.3335L60 48.3335L72 36.3335L60 24.3335L72 12.3335Z" fill="white"/>
<path d="M66.4889 46.8224V45.4891H66V45.3335H67.1778V45.4891H66.6667V46.8224H66.4889ZM67.5111 46.8224V45.3113H67.8L68.2667 46.5335L68.7111 45.3113H69V46.8224H68.8222V45.4891L68.3111 46.8224H68.2L67.6889 45.4891V46.8224H67.5111Z" fill="white"/>
</g>
<defs>
<clipPath id="clip0_13_53905">
<rect width="72" height="48" fill="white" transform="translate(0 0.333496)"/>
</clipPath>
</defs>
</svg>
